<svg xmlns="http://www.w3.org/2000/svg" width="1600" height="1120" viewBox="0 0 1600 1120">
  <defs>
    <filter id="shadow" x="-20%" y="-20%" width="140%" height="160%"><feDropShadow dx="0" dy="7" stdDeviation="10" flood-color="#263a55" flood-opacity=".08"/></filter>
    <style>
      text{font-family:"Noto Sans SC Thin","Microsoft YaHei","Noto Sans CJK SC","PingFang SC",sans-serif;fill:#273449}.muted{fill:#7b8798}.white{fill:#fff}.title{font-size:25px;font-weight:700}.h2{font-size:17px;font-weight:700}.num{font-size:25px;font-weight:700}.small{font-size:12px}.tiny{font-size:10px}.nav{font-size:14px;fill:#b9c7db}.roomno{font-size:14px;font-weight:700}.status{font-size:11px;font-weight:600}
    </style>
  </defs>
  <rect width="1600" height="1120" fill="#f3f6fb"/>
  <rect width="222" height="1120" fill="#162338"/>
  <rect x="20" y="23" width="38" height="38" rx="11" fill="#3979f5"/><text x="39" y="49" text-anchor="middle" class="white" font-size="18" font-weight="800">S</text>
  <text x="70" y="40" class="white" font-size="17" font-weight="700">SRMS</text><text x="70" y="57" fill="#8fa3c1" font-size="10">智慧房屋管理系统</text>
  <line x1="14" y1="79" x2="208" y2="79" stroke="#ffffff" stroke-opacity=".1"/>
  <text x="28" y="113" fill="#7085a5" font-size="11">工作台</text>
  <rect x="14" y="125" width="194" height="43" rx="9" fill="#246bfd"/><text x="35" y="152" class="white" font-size="14">•　经营驾驶舱</text>
  <text x="35" y="201" class="nav">•　房源管理</text><text x="35" y="242" class="nav">•　承租人管理</text><text x="35" y="283" class="nav">•　合同管理</text>
  <text x="28" y="326" fill="#7085a5" font-size="11">租赁财务</text><text x="35" y="363" class="nav">•　租金账单</text><text x="35" y="404" class="nav">•　收款管理</text><text x="35" y="445" class="nav">•　退租结算</text><text x="35" y="486" class="nav">•　财务中心</text>
  <text x="28" y="531" fill="#7085a5" font-size="11">系统</text><text x="35" y="568" class="nav">•　操作日志</text><text x="35" y="609" class="nav">•　系统设置</text>
  <rect x="222" width="1378" height="68" fill="#fff"/><line x1="222" y1="68" x2="1600" y2="68" stroke="#e6ebf3"/><text x="252" y="42" class="muted" font-size="13">首页 / <tspan fill="#273449" font-weight="700">经营驾驶舱</tspan></text><circle cx="1474" cy="34" r="17" fill="#dce8ff"/><text x="1474" y="39" text-anchor="middle" fill="#246bfd" font-weight="700">超</text><text x="1502" y="39" font-size="13">超级管理员 v</text>
  <text x="250" y="113" class="title">经营驾驶舱</text><text x="250" y="137" class="muted" font-size="13">早上好，以下是项目当前的房态与收租概况</text>
  <rect x="1255" y="94" width="108" height="36" rx="8" fill="#fff" stroke="#dfe5ee"/><text x="1309" y="117" text-anchor="middle" font-size="12">2026年7月 v</text><rect x="1373" y="94" width="102" height="36" rx="8" fill="#fff" stroke="#dfe5ee"/><text x="1424" y="117" text-anchor="middle" font-size="12">全部楼栋 v</text><rect x="1485" y="94" width="87" height="36" rx="8" fill="#246bfd"/><text x="1528" y="117" text-anchor="middle" class="white" font-size="12">刷新数据</text>
  <!-- metric cards -->
  <g filter="url(#shadow)"><rect x="250" y="158" width="205" height="92" rx="12" fill="#fff"/><rect x="466" y="158" width="205" height="92" rx="12" fill="#fff"/><rect x="682" y="158" width="205" height="92" rx="12" fill="#fff"/><rect x="898" y="158" width="205" height="92" rx="12" fill="#fff"/><rect x="1114" y="158" width="205" height="92" rx="12" fill="#fff"/><rect x="1330" y="158" width="242" height="92" rx="12" fill="#fff"/></g>
  <g class="small muted"><text x="267" y="182">房源总数　?</text><text x="483" y="182">可经营房源　?</text><text x="699" y="182">出租率　?</text><text x="915" y="182">本月应收　?</text><text x="1131" y="182">本月实收　?</text><text x="1347" y="182">累计欠租　?</text></g>
  <g class="num"><text x="267" y="218">48</text><text x="483" y="218">36</text><text x="699" y="218">83.3%</text><text x="915" y="218" fill="#145ddb">¥82,600</text><text x="1131" y="218" fill="#145ddb">¥76,200</text><text x="1347" y="218" fill="#d64545">¥9,800</text></g>
  <g class="tiny muted"><text x="267" y="239">1栋 24 · 2栋 24</text><text x="483" y="239">占全部 75%</text><text x="699" y="239">较上月 ↑ 2.1%</text><text x="915" y="239">账单 30 笔</text><text x="1131" y="239">收租率 92.3%</text><text x="1347" y="239">涉及 4 份合同</text></g>
  <!-- main left panel -->
  <rect x="250" y="267" width="938" height="646" rx="13" fill="#fff" filter="url(#shadow)"/><line x1="250" y1="329" x2="1188" y2="329" stroke="#edf1f6"/>
  <text x="270" y="294" class="h2">楼栋房态图　?</text><text x="270" y="315" class="muted small">主颜色表示房源状态，右上角标签表示装修状态</text>
  <rect x="789" y="282" width="112" height="29" rx="7" fill="#f2f5f9"/><text x="845" y="301" text-anchor="middle" class="tiny" fill="#64748b">默认：全部状态</text><rect x="908" y="282" width="92" height="29" rx="7" fill="#edf3ff" stroke="#b8cdfc"/><text x="954" y="301" text-anchor="middle" fill="#246bfd" class="tiny">状态筛选（8）v</text><rect x="1011" y="282" width="46" height="29" rx="7" fill="#edf3ff" stroke="#b8cdfc"/><text x="1034" y="301" text-anchor="middle" fill="#246bfd" class="small">1栋</text><rect x="1063" y="282" width="46" height="29" rx="7" fill="#fff" stroke="#dfe5ee"/><text x="1086" y="301" text-anchor="middle" class="small">2栋</text><rect x="1115" y="282" width="53" height="29" rx="7" fill="#fff" stroke="#dfe5ee"/><text x="1141" y="301" text-anchor="middle" class="small">全部</text>
  <g font-size="9"><circle cx="276" cy="353" r="5" fill="#22a06b"/><text x="287" y="357">已出租 12</text><circle cx="364" cy="353" r="5" fill="#51ae97"/><text x="375" y="357">空置 2</text><circle cx="434" cy="353" r="5" fill="#397be5"/><text x="445" y="357">待入住 2</text><circle cx="516" cy="353" r="5" fill="#e98216"/><text x="527" y="357">待退房 1</text><circle cx="598" cy="353" r="5" fill="#d4b52a"/><text x="609" y="357">维修中 1</text><circle cx="680" cy="353" r="5" fill="#7d5ce7"/><text x="691" y="357">待出售 2</text><circle cx="762" cy="353" r="5" fill="#8c95a3"/><text x="773" y="357">已出售 3</text><circle cx="844" cy="353" r="5" fill="#737981"/><text x="855" y="357">停用 1</text></g>
  <!-- floors generated explicitly -->
  <g>
    <!-- floor labels -->
    <g fill="#f2f5f9"><rect x="270" y="374" width="48" height="74" rx="8"/><rect x="270" y="456" width="48" height="74" rx="8"/><rect x="270" y="538" width="48" height="74" rx="8"/><rect x="270" y="620" width="48" height="74" rx="8"/><rect x="270" y="702" width="48" height="74" rx="8"/><rect x="270" y="784" width="48" height="80" rx="8"/></g>
    <g text-anchor="middle" font-size="13" font-weight="700" fill="#6a778a"><text x="294" y="416">6F</text><text x="294" y="498">5F</text><text x="294" y="580">4F</text><text x="294" y="662">3F</text><text x="294" y="744">2F</text><text x="294" y="821">1F</text><text x="294" y="838" font-size="9">商铺</text></g>
    <!-- cards row 6 -->
    <g><rect x="328" y="374" width="201" height="74" rx="9" fill="#e8f7f0" stroke="#a9dfc5"/><rect x="539" y="374" width="201" height="74" rx="9" fill="#eceff3" stroke="#cbd2dc"/><rect x="750" y="374" width="201" height="74" rx="9" fill="#eaf7f3" stroke="#a6ded1"/><rect x="961" y="374" width="207" height="74" rx="9" fill="#e8f7f0" stroke="#a9dfc5"/></g>
    <g class="roomno"><text x="340" y="397">601</text><text x="551" y="397">602</text><text x="762" y="397">603</text><text x="973" y="397">604</text></g><g class="status"><text x="340" y="420" fill="#13764d">已出租</text><text x="551" y="420" fill="#5c6572">已出售</text><text x="762" y="420" fill="#187363">空置</text><text x="973" y="420" fill="#13764d">已出租</text></g><g class="tiny muted"><text x="340" y="438">王女士 · 正常</text><text x="551" y="438">业主：李先生</text><text x="762" y="438">空置 12 天</text><text x="973" y="438">陈先生 · 正常</text></g>
    <!-- row5 -->
    <g><rect x="328" y="456" width="201" height="74" rx="9" fill="#e8f7f0" stroke="#a9dfc5"/><rect x="539" y="456" width="201" height="74" rx="9" fill="#f1edff" stroke="#c9bdf6"/><rect x="750" y="456" width="201" height="74" rx="9" fill="#fff1df" stroke="#f5c98f"/><rect x="961" y="456" width="207" height="74" rx="9" fill="#e8f7f0" stroke="#a9dfc5"/></g>
    <g class="roomno"><text x="340" y="479">501</text><text x="551" y="479">502</text><text x="762" y="479">503</text><text x="973" y="479">504</text></g><g class="status"><text x="340" y="502" fill="#13764d">已出租</text><text x="551" y="502" fill="#6543c4">待出售</text><text x="762" y="502" fill="#b76112">待退房</text><text x="973" y="502" fill="#13764d">已出租</text></g><g class="tiny muted"><text x="340" y="520">7天后缴租</text><text x="551" y="520">不参与出租经营</text><text x="762" y="520">押金待结算</text><text x="973" y="520">周先生 · 正常</text></g>
    <!-- row4 -->
    <g><rect x="328" y="538" width="201" height="74" rx="9" fill="#fff8d9" stroke="#eedc7b"/><rect x="539" y="538" width="201" height="74" rx="9" fill="#e8f7f0" stroke="#a9dfc5"/><rect x="750" y="538" width="201" height="74" rx="9" fill="#eceff3" stroke="#cbd2dc"/><rect x="961" y="538" width="207" height="74" rx="9" fill="#eaf1ff" stroke="#b5cafa"/></g>
    <g class="roomno"><text x="340" y="561">401</text><text x="551" y="561">402</text><text x="762" y="561">403</text><text x="973" y="561">404</text></g><g class="status"><text x="340" y="584" fill="#8b7114">维修中</text><text x="551" y="584" fill="#13764d">已出租</text><text x="762" y="584" fill="#5c6572">已出售</text><text x="973" y="584" fill="#245fbe">待入住</text></g><g class="tiny muted"><text x="340" y="602">预计 7月26日完成</text><text x="551" y="602" fill="#d64545">欠租 ¥2,000</text><text x="762" y="602">业主：吴女士</text><text x="973" y="602">计划 7月22日入住</text></g>
    <!-- row3 -->
    <g><rect x="328" y="620" width="201" height="74" rx="9" fill="#e8f7f0" stroke="#a9dfc5"/><rect x="539" y="620" width="201" height="74" rx="9" fill="#eaf7f3" stroke="#a6ded1"/><rect x="750" y="620" width="201" height="74" rx="9" fill="#e8f7f0" stroke="#a9dfc5"/><rect x="961" y="620" width="207" height="74" rx="9" fill="#eceff3" stroke="#cbd2dc"/></g>
    <g class="roomno"><text x="340" y="643">301</text><text x="551" y="643">302</text><text x="762" y="643">303</text><text x="973" y="643">304</text></g><g class="status"><text x="340" y="666" fill="#13764d">已出租</text><text x="551" y="666" fill="#187363">空置</text><text x="762" y="666" fill="#13764d">已出租</text><text x="973" y="666" fill="#5c6572">已出售</text></g><g class="tiny muted"><text x="340" y="684">赵先生 · 正常</text><text x="551" y="684">未装修 · 空置38天</text><text x="762" y="684">孙女士 · 正常</text><text x="973" y="684">未装修 · 黄先生</text></g>
    <!-- row2 -->
    <g><rect x="328" y="702" width="201" height="74" rx="9" fill="#e8f7f0" stroke="#a9dfc5"/><rect x="539" y="702" width="201" height="74" rx="9" fill="#e8f7f0" stroke="#a9dfc5"/><rect x="750" y="702" width="201" height="74" rx="9" fill="#eaf1ff" stroke="#b5cafa"/><rect x="961" y="702" width="207" height="74" rx="9" fill="#e8f7f0" stroke="#a9dfc5"/></g>
    <g class="roomno"><text x="340" y="725">201</text><text x="551" y="725">202</text><text x="762" y="725">203</text><text x="973" y="725">204</text></g><g class="status"><text x="340" y="748" fill="#13764d">已出租</text><text x="551" y="748" fill="#13764d">已出租</text><text x="762" y="748" fill="#245fbe">待入住</text><text x="973" y="748" fill="#13764d">已出租</text></g><g class="tiny muted"><text x="340" y="766">林女士 · 正常</text><text x="551" y="766">何先生 · 正常</text><text x="762" y="766">未装修 · 8月1日入住</text><text x="973" y="766" fill="#d64545">欠租 ¥1,800</text></g>
    <!-- row1 -->
    <g><rect x="328" y="784" width="201" height="80" rx="9" fill="#e8f7f0" stroke="#a9dfc5"/><rect x="539" y="784" width="201" height="80" rx="9" fill="#f1edff" stroke="#c9bdf6"/><rect x="750" y="784" width="201" height="80" rx="9" fill="#e8f7f0" stroke="#a9dfc5"/><rect x="961" y="784" width="207" height="80" rx="9" fill="#e8eaed" stroke="#c8cbd1"/></g>
    <g class="roomno"><text x="340" y="807">商铺101</text><text x="551" y="807">商铺102</text><text x="762" y="807">商铺103</text><text x="973" y="807">商铺104</text></g><g class="status"><text x="340" y="830" fill="#13764d">已出租</text><text x="551" y="830" fill="#6543c4">待出售</text><text x="762" y="830" fill="#13764d">已出租</text><text x="973" y="830" fill="#737981">停用</text></g><g class="tiny muted"><text x="340" y="850">便利店 · 正常</text><text x="551" y="850">未装修 · 不参与经营</text><text x="762" y="850">咖啡店 · 正常</text><text x="973" y="850">不参与经营</text></g>
  </g>
  <!-- right todos -->
  <rect x="1204" y="267" width="368" height="410" rx="13" fill="#fff" filter="url(#shadow)"/><text x="1224" y="297" class="h2">今日待办</text><text x="1224" y="316" class="muted small">需要优先处理的业务</text><line x1="1204" y1="330" x2="1572" y2="330" stroke="#edf1f6"/>
  <g><circle cx="1246" cy="368" r="20" fill="#fff0f0"/><text x="1246" y="374" text-anchor="middle" fill="#d64545" font-size="18" font-weight="700">!</text><text x="1280" y="363" font-size="13" font-weight="700">逾期未收</text><text x="1280" y="381" class="muted tiny">4份合同仍有欠租</text><text x="1534" y="374" fill="#d64545" font-size="20" font-weight="700">4</text>
  <circle cx="1246" cy="432" r="20" fill="#fff5e8"/><text x="1246" y="438" text-anchor="middle" fill="#d87714" font-size="15" font-weight="700">2</text><text x="1280" y="427" font-size="13" font-weight="700">7天内应缴</text><text x="1280" y="445" class="muted tiny">即将到期的租金账单</text><text x="1534" y="438" font-size="20" font-weight="700">6</text>
  <circle cx="1246" cy="496" r="20" fill="#eef3ff"/><text x="1246" y="502" text-anchor="middle" fill="#246bfd" font-size="15" font-weight="700">3</text><text x="1280" y="491" font-size="13" font-weight="700">合同即将到期</text><text x="1280" y="509" class="muted tiny">未来30天内到期</text><text x="1534" y="502" font-size="20" font-weight="700">3</text>
  <circle cx="1246" cy="560" r="20" fill="#f3efff"/><text x="1246" y="566" text-anchor="middle" fill="#7654d7" font-size="15" font-weight="700">4</text><text x="1280" y="555" font-size="13" font-weight="700">待确认押金退还</text><text x="1280" y="573" class="muted tiny">已上传退还凭证</text><text x="1534" y="566" font-size="20" font-weight="700">2</text>
  <circle cx="1246" cy="624" r="20" fill="#eef8f5"/><text x="1246" y="630" text-anchor="middle" fill="#208262" font-size="15" font-weight="700">5</text><text x="1280" y="619" font-size="13" font-weight="700">长期空置</text><text x="1280" y="637" class="muted tiny">连续空置超过30天</text><text x="1534" y="630" font-size="20" font-weight="700">1</text></g>
  <!-- composition -->
  <rect x="1204" y="694" width="368" height="219" rx="13" fill="#fff" filter="url(#shadow)"/><text x="1224" y="725" class="h2">房源构成</text><text x="1224" y="744" class="muted small">全部48套房源</text><circle cx="1310" cy="823" r="52" fill="none" stroke="#e9edf3" stroke-width="18"/><circle cx="1310" cy="823" r="52" fill="none" stroke="#22a06b" stroke-width="18" stroke-dasharray="175 327" transform="rotate(-90 1310 823)"/><text x="1310" y="817" text-anchor="middle" class="muted tiny">房源总数</text><text x="1310" y="842" text-anchor="middle" font-size="23" font-weight="700">48</text><circle cx="1405" cy="789" r="5" fill="#22a06b"/><text x="1417" y="793" class="small">经营房源 36</text><circle cx="1405" cy="824" r="5" fill="#7d5ce7"/><text x="1417" y="828" class="small">待出售 4</text><circle cx="1405" cy="859" r="5" fill="#8c95a3"/><text x="1417" y="863" class="small">已出售 8</text>
  <!-- bottom trend -->
  <rect x="250" y="931" width="1322" height="158" rx="13" fill="#fff" filter="url(#shadow)"/><text x="270" y="962" class="h2">近6个月收租趋势　?</text><text x="270" y="981" class="muted small">应收与实收对比（示意）</text><line x1="520" y1="1060" x2="1535" y2="1060" stroke="#dfe5ee"/><line x1="520" y1="1000" x2="1535" y2="1000" stroke="#edf1f5"/><polyline points="520,1040 720,1025 920,1032 1120,1008 1320,1016 1535,990" fill="none" stroke="#246bfd" stroke-width="3"/><polyline points="520,1050 720,1035 920,1048 1120,1019 1320,1032 1535,1005" fill="none" stroke="#22a06b" stroke-width="3"/><text x="330" y="1025" fill="#246bfd" font-size="13">— 应收</text><text x="330" y="1052" fill="#22a06b" font-size="13">— 实收</text>
</svg>
